<mxfile host="app.diagrams.net" modified="2024-04-25T20:53:29.617Z" agent="Mozilla/5.0 (Windows NT 10.0; Win64; x64) AppleWebKit/537.36 (KHTML, like Gecko) Chrome/124.0.0.0 Safari/537.36" etag="RxBVUzNfZTLVoobRR1v3" version="24.3.0" type="device">
  <diagram id="R2lEEEUBdFMjLlhIrx00" name="Page-1">
    <mxGraphModel dx="2074" dy="1144" grid="1" gridSize="10" guides="1" tooltips="1" connect="1" arrows="1" fold="1" page="1" pageScale="1" pageWidth="850" pageHeight="1100" math="0" shadow="0" extFonts="Permanent Marker^https://fonts.googleapis.com/css?family=Permanent+Marker">
      <root>
        <mxCell id="0" />
        <mxCell id="1" parent="0" />
        <mxCell id="nYPI9ZoJaHFmOhe6Q_kn-4" value="Calificaciones" style="swimlane;childLayout=stackLayout;horizontal=1;startSize=50;horizontalStack=0;rounded=1;fontSize=14;fontStyle=0;strokeWidth=2;resizeParent=0;resizeLast=1;shadow=0;dashed=0;align=center;arcSize=4;whiteSpace=wrap;html=1;" parent="1" vertex="1">
          <mxGeometry x="330" y="20" width="170" height="190" as="geometry" />
        </mxCell>
        <mxCell id="nYPI9ZoJaHFmOhe6Q_kn-5" value="&lt;b&gt;&lt;u&gt;+calificacion_id&lt;br&gt;&lt;/u&gt;&lt;br&gt;&lt;/b&gt;&lt;div&gt;&lt;b&gt;+alumno_id&lt;/b&gt;&lt;div&gt;&lt;b&gt;+modulo_id&lt;br&gt;&lt;/b&gt;&lt;div&gt;&lt;b&gt;+evaluacion&lt;/b&gt;&lt;/div&gt;&lt;/div&gt;&lt;div&gt;&lt;b&gt;+aÃ±o&lt;/b&gt;&lt;/div&gt;&lt;/div&gt;&lt;div&gt;&lt;b&gt;&lt;br&gt;&lt;/b&gt;&lt;/div&gt;&lt;div&gt;+nota_numerica&lt;/div&gt;" style="align=left;strokeColor=none;fillColor=none;spacingLeft=4;fontSize=12;verticalAlign=top;resizable=0;rotatable=0;part=1;html=1;" parent="nYPI9ZoJaHFmOhe6Q_kn-4" vertex="1">
          <mxGeometry y="50" width="170" height="140" as="geometry" />
        </mxCell>
        <mxCell id="nYPI9ZoJaHFmOhe6Q_kn-6" value="Alumnos" style="swimlane;childLayout=stackLayout;horizontal=1;startSize=50;horizontalStack=0;rounded=1;fontSize=14;fontStyle=0;strokeWidth=2;resizeParent=0;resizeLast=1;shadow=0;dashed=0;align=center;arcSize=4;whiteSpace=wrap;html=1;" parent="1" vertex="1">
          <mxGeometry x="680" y="20" width="160" height="320" as="geometry" />
        </mxCell>
        <mxCell id="nYPI9ZoJaHFmOhe6Q_kn-7" value="&lt;u&gt;&lt;b&gt;+alumno_id&lt;/b&gt;&lt;/u&gt;&lt;div&gt;&lt;u&gt;&lt;b&gt;&lt;br&gt;&lt;/b&gt;&lt;/u&gt;+nia&lt;/div&gt;&lt;div&gt;+fecha_nac&lt;/div&gt;&lt;div&gt;+municipio_nac&lt;/div&gt;&lt;div&gt;+provincia_nac&lt;/div&gt;&lt;div&gt;+pais_nacimiento_id&lt;/div&gt;&lt;div&gt;+nacionalidad&lt;/div&gt;&lt;div&gt;+cod_postal&lt;/div&gt;&lt;div&gt;+provincia&lt;/div&gt;&lt;div&gt;+municipio&lt;/div&gt;&lt;div&gt;+localidad&lt;/div&gt;&lt;div&gt;+fecha_matricula&lt;/div&gt;&lt;div&gt;+fecha_ingreso_centro&lt;/div&gt;&lt;div&gt;+estado_matricula&lt;/div&gt;&lt;div&gt;&lt;span style=&quot;background-color: initial;&quot;&gt;+turno&lt;/span&gt;&lt;br&gt;&lt;/div&gt;" style="align=left;strokeColor=none;fillColor=none;spacingLeft=4;fontSize=12;verticalAlign=top;resizable=0;rotatable=0;part=1;html=1;" parent="nYPI9ZoJaHFmOhe6Q_kn-6" vertex="1">
          <mxGeometry y="50" width="160" height="270" as="geometry" />
        </mxCell>
        <mxCell id="nYPI9ZoJaHFmOhe6Q_kn-8" value="" style="edgeStyle=entityRelationEdgeStyle;fontSize=12;html=1;endArrow=ERzeroToMany;startArrow=ERmandOne;rounded=0;entryX=1;entryY=0.25;entryDx=0;entryDy=0;exitX=0;exitY=0.25;exitDx=0;exitDy=0;" parent="1" source="nYPI9ZoJaHFmOhe6Q_kn-7" target="nYPI9ZoJaHFmOhe6Q_kn-5" edge="1">
          <mxGeometry width="100" height="100" relative="1" as="geometry">
            <mxPoint x="480" y="520" as="sourcePoint" />
            <mxPoint x="580" y="420" as="targetPoint" />
          </mxGeometry>
        </mxCell>
        <mxCell id="nYPI9ZoJaHFmOhe6Q_kn-9" value="Modulos" style="swimlane;childLayout=stackLayout;horizontal=1;startSize=50;horizontalStack=0;rounded=1;fontSize=14;fontStyle=0;strokeWidth=2;resizeParent=0;resizeLast=1;shadow=0;dashed=0;align=center;arcSize=4;whiteSpace=wrap;html=1;" parent="1" vertex="1">
          <mxGeometry x="20" y="20" width="160" height="230" as="geometry" />
        </mxCell>
        <mxCell id="nYPI9ZoJaHFmOhe6Q_kn-10" value="&lt;b&gt;&lt;u&gt;+modulo_id&lt;/u&gt;&lt;/b&gt;&lt;div&gt;&lt;b&gt;&lt;u&gt;&lt;br&gt;&lt;/u&gt;+codigo&lt;/b&gt;&lt;div&gt;&lt;div&gt;&lt;b&gt;&lt;br&gt;&lt;/b&gt;&lt;/div&gt;&lt;div&gt;+horas&lt;/div&gt;&lt;/div&gt;&lt;div&gt;&lt;br&gt;&lt;/div&gt;&lt;div&gt;+familia (Inf)&lt;/div&gt;&lt;div&gt;+grado (Sup/Med)&lt;/div&gt;&lt;div&gt;+especialidad(DAW)&lt;/div&gt;&lt;div&gt;+periodo (Prim/Segu)&lt;/div&gt;&lt;/div&gt;" style="align=left;strokeColor=none;fillColor=none;spacingLeft=4;fontSize=12;verticalAlign=top;resizable=0;rotatable=0;part=1;html=1;" parent="nYPI9ZoJaHFmOhe6Q_kn-9" vertex="1">
          <mxGeometry y="50" width="160" height="180" as="geometry" />
        </mxCell>
        <mxCell id="nYPI9ZoJaHFmOhe6Q_kn-11" value="" style="edgeStyle=entityRelationEdgeStyle;fontSize=12;html=1;endArrow=ERzeroToMany;startArrow=ERmandOne;rounded=0;exitX=1;exitY=0.25;exitDx=0;exitDy=0;entryX=0;entryY=0.5;entryDx=0;entryDy=0;" parent="1" source="nYPI9ZoJaHFmOhe6Q_kn-10" target="nYPI9ZoJaHFmOhe6Q_kn-5" edge="1">
          <mxGeometry width="100" height="100" relative="1" as="geometry">
            <mxPoint x="330" y="410" as="sourcePoint" />
            <mxPoint x="430" y="310" as="targetPoint" />
          </mxGeometry>
        </mxCell>
        <mxCell id="qC9MQ1CKWeiiMSyQXWao-6" value="modulo_id&lt;div&gt;&lt;br&gt;&lt;/div&gt;" style="text;html=1;align=center;verticalAlign=middle;resizable=0;points=[];autosize=1;strokeColor=none;fillColor=none;" parent="1" vertex="1">
          <mxGeometry x="220" y="80" width="80" height="40" as="geometry" />
        </mxCell>
        <mxCell id="qC9MQ1CKWeiiMSyQXWao-7" value="alumno_id" style="text;html=1;align=center;verticalAlign=middle;resizable=0;points=[];autosize=1;strokeColor=none;fillColor=none;" parent="1" vertex="1">
          <mxGeometry x="550" y="80" width="80" height="30" as="geometry" />
        </mxCell>
        <mxCell id="CnJq2KjxtgYFQyhHXtZq-1" value="Paises" style="swimlane;childLayout=stackLayout;horizontal=1;startSize=50;horizontalStack=0;rounded=1;fontSize=14;fontStyle=0;strokeWidth=2;resizeParent=0;resizeLast=1;shadow=0;dashed=0;align=center;arcSize=4;whiteSpace=wrap;html=1;" vertex="1" parent="1">
          <mxGeometry x="330" y="300" width="160" height="140" as="geometry" />
        </mxCell>
        <mxCell id="CnJq2KjxtgYFQyhHXtZq-2" value="&lt;b&gt;&lt;u&gt;+pais_id&lt;br&gt;&lt;/u&gt;&lt;/b&gt;+codigo_iso&lt;br&gt;+nombre&lt;div&gt;+continente&lt;/div&gt;" style="align=left;strokeColor=none;fillColor=none;spacingLeft=4;fontSize=12;verticalAlign=top;resizable=0;rotatable=0;part=1;html=1;" vertex="1" parent="CnJq2KjxtgYFQyhHXtZq-1">
          <mxGeometry y="50" width="160" height="90" as="geometry" />
        </mxCell>
        <mxCell id="CnJq2KjxtgYFQyhHXtZq-4" value="" style="fontSize=12;html=1;endArrow=ERzeroToMany;startArrow=ERmandOne;rounded=0;exitX=1;exitY=0.25;exitDx=0;exitDy=0;edgeStyle=orthogonalEdgeStyle;entryX=0.5;entryY=1;entryDx=0;entryDy=0;" edge="1" parent="1" source="CnJq2KjxtgYFQyhHXtZq-2" target="nYPI9ZoJaHFmOhe6Q_kn-7">
          <mxGeometry width="100" height="100" relative="1" as="geometry">
            <mxPoint x="370" y="290" as="sourcePoint" />
            <mxPoint x="720" y="470" as="targetPoint" />
          </mxGeometry>
        </mxCell>
        <mxCell id="CnJq2KjxtgYFQyhHXtZq-6" value="pais_id=pais_nacimiento_id" style="text;html=1;align=center;verticalAlign=middle;resizable=0;points=[];autosize=1;strokeColor=none;fillColor=none;" vertex="1" parent="1">
          <mxGeometry x="510" y="330" width="170" height="30" as="geometry" />
        </mxCell>
      </root>
    </mxGraphModel>
  </diagram>
</mxfile>
